<svg width="2833" height="1242" xmlns="http://www.w3.org/2000/svg" xmlns:xlink="http://www.w3.org/1999/xlink" xml:space="preserve" overflow="hidden"><g transform="translate(-682 -710)"><g><rect x="686.5" y="1773.5" width="1389" height="131" stroke="#000000" stroke-width="6.875" stroke-linecap="butt" stroke-linejoin="miter" stroke-miterlimit="8" stroke-opacity="1" fill="#A0E887" fill-opacity="1"/><text fill="#000000" fill-opacity="1" font-family="Aptos SemiBold,Aptos SemiBold_MSFontService,sans-serif" font-style="normal" font-variant="normal" font-weight="600" font-stretch="normal" font-size="92" text-anchor="start" direction="ltr" writing-mode="lr-tb" unicode-bidi="normal" text-decoration="none" transform="matrix(1 0 0 1 1101.53 1869)">Regional</text><text fill="#000000" fill-opacity="1" font-family="Aptos SemiBold,Aptos SemiBold_MSFontService,sans-serif" font-style="normal" font-variant="normal" font-weight="600" font-stretch="normal" font-size="92" text-anchor="start" direction="ltr" writing-mode="lr-tb" unicode-bidi="normal" text-decoration="none" transform="matrix(1 0 0 1 1474.5 1869)">OCS</text><rect x="686.5" y="938.5" width="542" height="787" stroke="#172C51" stroke-width="6.875" stroke-linecap="butt" stroke-linejoin="miter" stroke-miterlimit="8" stroke-opacity="1" fill="#D9D9D9" fill-opacity="1"/><path d="M750.834 1694.5C735.186 1694.5 722.5 1681.81 722.5 1666.17L722.5 992.834C722.5 977.185 735.186 964.5 750.834 964.5L864.166 964.5C879.815 964.5 892.5 977.185 892.5 992.834L892.5 1666.17C892.5 1681.81 879.815 1694.5 864.166 1694.5Z" stroke="#000000" stroke-width="6.875" stroke-linecap="butt" stroke-linejoin="miter" stroke-miterlimit="8" stroke-opacity="1" fill="#FDC3BC" fill-rule="evenodd" fill-opacity="1"/><text fill="#000000" fill-opacity="1" font-family="Aptos,Aptos_MSFontService,sans-serif" font-style="normal" font-variant="normal" font-weight="700" font-stretch="normal" font-size="64" text-anchor="start" direction="ltr" writing-mode="lr-tb" unicode-bidi="normal" text-decoration="none" transform="matrix(-1.83697e-16 -1 1 -1.83697e-16 789.011 1643)">Lo</text><text fill="#000000" fill-opacity="1" font-family="Aptos,Aptos_MSFontService,sans-serif" font-style="normal" font-variant="normal" font-weight="700" font-stretch="normal" font-size="64" text-anchor="start" direction="ltr" writing-mode="lr-tb" unicode-bidi="normal" text-decoration="none" transform="matrix(-1.83697e-16 -1 1 -1.83697e-16 789.011 1573)">cal</text><text fill="#000000" fill-opacity="1" font-family="Aptos,Aptos_MSFontService,sans-serif" font-style="normal" font-variant="normal" font-weight="700" font-stretch="normal" font-size="64" text-anchor="start" direction="ltr" writing-mode="lr-tb" unicode-bidi="normal" text-decoration="none" transform="matrix(-1.83697e-16 -1 1 -1.83697e-16 789.011 1471)">Scale</text><text fill="#000000" fill-opacity="1" font-family="Aptos,Aptos_MSFontService,sans-serif" font-style="normal" font-variant="normal" font-weight="700" font-stretch="normal" font-size="64" text-anchor="start" direction="ltr" writing-mode="lr-tb" unicode-bidi="normal" text-decoration="none" transform="matrix(-1.83697e-16 -1 1 -1.83697e-16 789.011 1308)">-</text><text fill="#000000" fill-opacity="1" font-family="Aptos,Aptos_MSFontService,sans-serif" font-style="normal" font-variant="normal" font-weight="700" font-stretch="normal" font-size="64" text-anchor="start" direction="ltr" writing-mode="lr-tb" unicode-bidi="normal" text-decoration="none" transform="matrix(-1.83697e-16 -1 1 -1.83697e-16 789.011 1286)">up</text><text fill="#000000" fill-opacity="1" font-family="Aptos,Aptos_MSFontService,sans-serif" font-style="normal" font-variant="normal" font-weight="700" font-stretch="normal" font-size="64" text-anchor="start" direction="ltr" writing-mode="lr-tb" unicode-bidi="normal" text-decoration="none" transform="matrix(-1.83697e-16 -1 1 -1.83697e-16 789.011 1198)">Fabric</text><text fill="#000000" fill-opacity="1" font-family="Aptos,Aptos_MSFontService,sans-serif" font-style="normal" font-variant="normal" font-weight="700" font-stretch="normal" font-size="64" text-anchor="start" direction="ltr" writing-mode="lr-tb" unicode-bidi="normal" text-decoration="none" transform="matrix(-1.83697e-16 -1 1 -1.83697e-16 866.011 1497)">(</text><text fill="#000000" fill-opacity="1" font-family="Aptos,Aptos_MSFontService,sans-serif" font-style="normal" font-variant="normal" font-weight="700" font-stretch="normal" font-size="64" text-anchor="start" direction="ltr" writing-mode="lr-tb" unicode-bidi="normal" text-decoration="none" transform="matrix(-1.83697e-16 -1 1 -1.83697e-16 866.011 1478)">NV</text><text fill="#000000" fill-opacity="1" font-family="Aptos,Aptos_MSFontService,sans-serif" font-style="normal" font-variant="normal" font-weight="700" font-stretch="normal" font-size="64" text-anchor="start" direction="ltr" writing-mode="lr-tb" unicode-bidi="normal" text-decoration="none" transform="matrix(-1.83697e-16 -1 1 -1.83697e-16 866.011 1379)">Switch)</text><path d="M891 1634 946.904 1634" stroke="#000000" stroke-width="27.5" stroke-linecap="butt" stroke-linejoin="miter" stroke-miterlimit="8" stroke-opacity="1" fill="none" fill-rule="evenodd"/><path d="M891 1431 946.904 1431" stroke="#000000" stroke-width="27.5" stroke-linecap="butt" stroke-linejoin="miter" stroke-miterlimit="8" stroke-opacity="1" fill="none" fill-rule="evenodd"/><path d="M891 1227 946.904 1227" stroke="#000000" stroke-width="27.5" stroke-linecap="butt" stroke-linejoin="miter" stroke-miterlimit="8" stroke-opacity="1" fill="none" fill-rule="evenodd"/><path d="M891 1024 946.904 1024" stroke="#000000" stroke-width="27.5" stroke-linecap="butt" stroke-linejoin="miter" stroke-miterlimit="8" stroke-opacity="1" fill="none" fill-rule="evenodd"/><rect x="0" y="0" width="120" height="209" stroke="#262626" stroke-width="4.58333" stroke-linecap="butt" stroke-linejoin="miter" stroke-miterlimit="8" stroke-opacity="1" fill="#F4B183" fill-opacity="1" transform="matrix(1.83697e-16 1 1 -1.83697e-16 950.5 964.5)"/><text fill="#000000" fill-opacity="1" font-family="Aptos,Aptos_MSFontService,sans-serif" font-style="normal" font-variant="normal" font-weight="700" font-stretch="normal" font-size="73" text-anchor="start" direction="ltr" writing-mode="lr-tb" unicode-bidi="normal" text-decoration="none" transform="matrix(1 -2.44929e-16 2.44929e-16 1 988.33 1048)">xPU</text><rect x="0" y="0" width="120" height="209" stroke="#262626" stroke-width="4.58333" stroke-linecap="butt" stroke-linejoin="miter" stroke-miterlimit="8" stroke-opacity="1" fill="#F4B183" fill-opacity="1" transform="matrix(1.83697e-16 1 1 -1.83697e-16 947.5 1166.5)"/><text fill="#000000" fill-opacity="1" font-family="Aptos,Aptos_MSFontService,sans-serif" font-style="normal" font-variant="normal" font-weight="700" font-stretch="normal" font-size="73" text-anchor="start" direction="ltr" writing-mode="lr-tb" unicode-bidi="normal" text-decoration="none" transform="matrix(1 -2.44929e-16 2.44929e-16 1 985.68 1250)">xPU</text><rect x="0" y="0" width="120" height="209" stroke="#262626" stroke-width="4.58333" stroke-linecap="butt" stroke-linejoin="miter" stroke-miterlimit="8" stroke-opacity="1" fill="#F4B183" fill-opacity="1" transform="matrix(1.83697e-16 1 1 -1.83697e-16 944.5 1370.5)"/><text fill="#000000" fill-opacity="1" font-family="Aptos,Aptos_MSFontService,sans-serif" font-style="normal" font-variant="normal" font-weight="700" font-stretch="normal" font-size="73" text-anchor="start" direction="ltr" writing-mode="lr-tb" unicode-bidi="normal" text-decoration="none" transform="matrix(1 -2.44929e-16 2.44929e-16 1 982.624 1454)">xPU</text><rect x="0" y="0" width="121" height="209" stroke="#262626" stroke-width="4.58333" stroke-linecap="butt" stroke-linejoin="miter" stroke-miterlimit="8" stroke-opacity="1" fill="#F4B183" fill-opacity="1" transform="matrix(1.83697e-16 1 1 -1.83697e-16 946.5 1573.5)"/><text fill="#000000" fill-opacity="1" font-family="Aptos,Aptos_MSFontService,sans-serif" font-style="normal" font-variant="normal" font-weight="700" font-stretch="normal" font-size="73" text-anchor="start" direction="ltr" writing-mode="lr-tb" unicode-bidi="normal" text-decoration="none" transform="matrix(1 -2.44929e-16 2.44929e-16 1 984.471 1657)">xPU</text><path d="M34.375-6.875 75.625-6.875 75.625 6.875 34.375 6.875ZM89.375-6.875 130.625-6.875 130.625 6.875 89.375 6.875ZM144.375-6.875 185.625-6.875 185.625 6.875 144.375 6.875ZM199.375-6.875 240.625-6.875 240.625 6.875 199.375 6.875ZM254.375-6.875 295.625-6.875 295.625 6.875 254.375 6.875ZM309.375-6.875 350.625-6.875 350.625 6.875 309.375 6.875ZM364.375-6.875 405.625-6.875 405.625 6.875 364.375 6.875ZM419.375-6.875 460.625-6.875 460.625 6.875 419.375 6.875ZM474.375-6.875 515.625-6.875 515.625 6.875 474.375 6.875ZM529.375-6.875 556.461-6.875 556.461 21.0389 542.711 21.0389 542.711 0 549.586 6.875 529.375 6.875ZM556.461 34.7889 556.461 76.0389 542.711 76.0389 542.711 34.7889ZM556.461 89.7889 556.461 122.175 542.711 122.175 542.711 89.7889ZM41.25 20.625 0 0 41.25-20.625ZM570.211 115.3 549.586 156.55 528.961 115.3Z" fill="#000000" fill-rule="nonzero" fill-opacity="1" transform="matrix(-1.83697e-16 -1 -1 1.83697e-16 1312.55 1775.59)"/><path d="M34.375-6.875 75.625-6.875 75.625 6.875 34.375 6.875ZM89.375-6.875 130.625-6.875 130.625 6.875 89.375 6.875ZM148.98 2.27001 148.98 33.6074 135.23 33.6074 135.23 2.27001ZM41.25 20.625 0 0 41.25-20.625ZM162.73 26.7324 142.105 67.9824 121.48 26.7324Z" fill="#000000" fill-rule="nonzero" fill-opacity="1" transform="matrix(-1.83697e-16 -1 -1 1.83697e-16 1222.98 1775.1)"/><path d="M34.375-6.875 75.625-6.875 75.625 6.875 34.375 6.875ZM89.375-6.875 130.625-6.875 130.625 6.875 89.375 6.875ZM144.375-6.875 185.625-6.875 185.625 6.875 144.375 6.875ZM199.375-6.875 240.625-6.875 240.625 6.875 199.375 6.875ZM254.375-6.875 295.625-6.875 295.625 6.875 254.375 6.875ZM309.375-6.875 352.72-6.875 352.72 4.77961 338.97 4.77961 338.97 0 345.845 6.875 309.375 6.875ZM352.72 18.5296 352.72 59.7796 338.97 59.7796 338.97 18.5296ZM352.72 73.5296 352.72 83.1803 338.97 83.1803 338.97 73.5296ZM41.25 20.625 0 0 41.25-20.625ZM366.47 76.3053 345.845 117.555 325.22 76.3053Z" fill="#000000" fill-rule="nonzero" fill-opacity="1" transform="matrix(-1.83697e-16 -1 -1 1.83697e-16 1270.56 1775.85)"/><path d="M0 0 4.31904 0 4.31904 159.182 169.71 159.182" stroke="#000000" stroke-width="12.6042" stroke-linecap="butt" stroke-linejoin="miter" stroke-miterlimit="8" stroke-opacity="1" fill="none" fill-rule="evenodd" transform="matrix(-1 1.22465e-16 1.22465e-16 1 1329.21 865.5)"/><rect x="1403.5" y="938.5" width="542" height="787" stroke="#172C51" stroke-width="6.875" stroke-linecap="butt" stroke-linejoin="miter" stroke-miterlimit="8" stroke-opacity="1" fill="#D9D9D9" fill-opacity="1"/><path d="M1467.83 1694.5C1452.19 1694.5 1439.5 1681.81 1439.5 1666.17L1439.5 992.834C1439.5 977.185 1452.19 964.5 1467.83 964.5L1581.17 964.5C1596.81 964.5 1609.5 977.185 1609.5 992.834L1609.5 1666.17C1609.5 1681.81 1596.81 1694.5 1581.17 1694.5Z" stroke="#000000" stroke-width="6.875" stroke-linecap="butt" stroke-linejoin="miter" stroke-miterlimit="8" stroke-opacity="1" fill="#FDC3BC" fill-rule="evenodd" fill-opacity="1"/><text fill="#000000" fill-opacity="1" font-family="Aptos,Aptos_MSFontService,sans-serif" font-style="normal" font-variant="normal" font-weight="700" font-stretch="normal" font-size="64" text-anchor="start" direction="ltr" writing-mode="lr-tb" unicode-bidi="normal" text-decoration="none" transform="matrix(-1.83697e-16 -1 1 -1.83697e-16 1505.85 1643)">Lo</text><text fill="#000000" fill-opacity="1" font-family="Aptos,Aptos_MSFontService,sans-serif" font-style="normal" font-variant="normal" font-weight="700" font-stretch="normal" font-size="64" text-anchor="start" direction="ltr" writing-mode="lr-tb" unicode-bidi="normal" text-decoration="none" transform="matrix(-1.83697e-16 -1 1 -1.83697e-16 1505.85 1573)">cal</text><text fill="#000000" fill-opacity="1" font-family="Aptos,Aptos_MSFontService,sans-serif" font-style="normal" font-variant="normal" font-weight="700" font-stretch="normal" font-size="64" text-anchor="start" direction="ltr" writing-mode="lr-tb" unicode-bidi="normal" text-decoration="none" transform="matrix(-1.83697e-16 -1 1 -1.83697e-16 1505.85 1471)">Scale</text><text fill="#000000" fill-opacity="1" font-family="Aptos,Aptos_MSFontService,sans-serif" font-style="normal" font-variant="normal" font-weight="700" font-stretch="normal" font-size="64" text-anchor="start" direction="ltr" writing-mode="lr-tb" unicode-bidi="normal" text-decoration="none" transform="matrix(-1.83697e-16 -1 1 -1.83697e-16 1505.85 1308)">-</text><text fill="#000000" fill-opacity="1" font-family="Aptos,Aptos_MSFontService,sans-serif" font-style="normal" font-variant="normal" font-weight="700" font-stretch="normal" font-size="64" text-anchor="start" direction="ltr" writing-mode="lr-tb" unicode-bidi="normal" text-decoration="none" transform="matrix(-1.83697e-16 -1 1 -1.83697e-16 1505.85 1286)">up</text><text fill="#000000" fill-opacity="1" font-family="Aptos,Aptos_MSFontService,sans-serif" font-style="normal" font-variant="normal" font-weight="700" font-stretch="normal" font-size="64" text-anchor="start" direction="ltr" writing-mode="lr-tb" unicode-bidi="normal" text-decoration="none" transform="matrix(-1.83697e-16 -1 1 -1.83697e-16 1505.85 1198)">Fabric</text><text fill="#000000" fill-opacity="1" font-family="Aptos,Aptos_MSFontService,sans-serif" font-style="normal" font-variant="normal" font-weight="700" font-stretch="normal" font-size="64" text-anchor="start" direction="ltr" writing-mode="lr-tb" unicode-bidi="normal" text-decoration="none" transform="matrix(-1.83697e-16 -1 1 -1.83697e-16 1582.85 1497)">(</text><text fill="#000000" fill-opacity="1" font-family="Aptos,Aptos_MSFontService,sans-serif" font-style="normal" font-variant="normal" font-weight="700" font-stretch="normal" font-size="64" text-anchor="start" direction="ltr" writing-mode="lr-tb" unicode-bidi="normal" text-decoration="none" transform="matrix(-1.83697e-16 -1 1 -1.83697e-16 1582.85 1478)">NV</text><text fill="#000000" fill-opacity="1" font-family="Aptos,Aptos_MSFontService,sans-serif" font-style="normal" font-variant="normal" font-weight="700" font-stretch="normal" font-size="64" text-anchor="start" direction="ltr" writing-mode="lr-tb" unicode-bidi="normal" text-decoration="none" transform="matrix(-1.83697e-16 -1 1 -1.83697e-16 1582.85 1379)">Switch)</text><path d="M1608 1634 1663.9 1634" stroke="#000000" stroke-width="27.5" stroke-linecap="butt" stroke-linejoin="miter" stroke-miterlimit="8" stroke-opacity="1" fill="none" fill-rule="evenodd"/><path d="M1608 1431 1663.9 1431" stroke="#000000" stroke-width="27.5" stroke-linecap="butt" stroke-linejoin="miter" stroke-miterlimit="8" stroke-opacity="1" fill="none" fill-rule="evenodd"/><path d="M1608 1227 1663.9 1227" stroke="#000000" stroke-width="27.5" stroke-linecap="butt" stroke-linejoin="miter" stroke-miterlimit="8" stroke-opacity="1" fill="none" fill-rule="evenodd"/><path d="M1608 1024 1663.9 1024" stroke="#000000" stroke-width="27.5" stroke-linecap="butt" stroke-linejoin="miter" stroke-miterlimit="8" stroke-opacity="1" fill="none" fill-rule="evenodd"/><rect x="0" y="0" width="120" height="208" stroke="#262626" stroke-width="4.58333" stroke-linecap="butt" stroke-linejoin="miter" stroke-miterlimit="8" stroke-opacity="1" fill="#F4B183" fill-opacity="1" transform="matrix(1.83697e-16 1 1 -1.83697e-16 1667.5 964.5)"/><text fill="#000000" fill-opacity="1" font-family="Aptos,Aptos_MSFontService,sans-serif" font-style="normal" font-variant="normal" font-weight="700" font-stretch="normal" font-size="73" text-anchor="start" direction="ltr" writing-mode="lr-tb" unicode-bidi="normal" text-decoration="none" transform="matrix(1 -2.44929e-16 2.44929e-16 1 1705.17 1048)">xPU</text><rect x="0" y="0" width="120" height="209" stroke="#262626" stroke-width="4.58333" stroke-linecap="butt" stroke-linejoin="miter" stroke-miterlimit="8" stroke-opacity="1" fill="#F4B183" fill-opacity="1" transform="matrix(1.83697e-16 1 1 -1.83697e-16 1664.5 1166.5)"/><text fill="#000000" fill-opacity="1" font-family="Aptos,Aptos_MSFontService,sans-serif" font-style="normal" font-variant="normal" font-weight="700" font-stretch="normal" font-size="73" text-anchor="start" direction="ltr" writing-mode="lr-tb" unicode-bidi="normal" text-decoration="none" transform="matrix(1 -2.44929e-16 2.44929e-16 1 1702.52 1250)">xPU</text><rect x="0" y="0" width="120" height="209" stroke="#262626" stroke-width="4.58333" stroke-linecap="butt" stroke-linejoin="miter" stroke-miterlimit="8" stroke-opacity="1" fill="#F4B183" fill-opacity="1" transform="matrix(1.83697e-16 1 1 -1.83697e-16 1661.5 1370.5)"/><text fill="#000000" fill-opacity="1" font-family="Aptos,Aptos_MSFontService,sans-serif" font-style="normal" font-variant="normal" font-weight="700" font-stretch="normal" font-size="73" text-anchor="start" direction="ltr" writing-mode="lr-tb" unicode-bidi="normal" text-decoration="none" transform="matrix(1 -2.44929e-16 2.44929e-16 1 1699.46 1454)">xPU</text><rect x="0" y="0" width="121" height="209" stroke="#262626" stroke-width="4.58333" stroke-linecap="butt" stroke-linejoin="miter" stroke-miterlimit="8" stroke-opacity="1" fill="#F4B183" fill-opacity="1" transform="matrix(1.83697e-16 1 1 -1.83697e-16 1663.5 1573.5)"/><text fill="#000000" fill-opacity="1" font-family="Aptos,Aptos_MSFontService,sans-serif" font-style="normal" font-variant="normal" font-weight="700" font-stretch="normal" font-size="73" text-anchor="start" direction="ltr" writing-mode="lr-tb" unicode-bidi="normal" text-decoration="none" transform="matrix(1 -2.44929e-16 2.44929e-16 1 1701.31 1657)">xPU</text><path d="M34.375-6.875 75.625-6.875 75.625 6.875 34.375 6.875ZM89.375-6.875 130.625-6.875 130.625 6.875 89.375 6.875ZM144.375-6.875 185.625-6.875 185.625 6.875 144.375 6.875ZM199.375-6.875 240.625-6.875 240.625 6.875 199.375 6.875ZM254.375-6.875 295.625-6.875 295.625 6.875 254.375 6.875ZM309.375-6.875 350.625-6.875 350.625 6.875 309.375 6.875ZM364.375-6.875 405.625-6.875 405.625 6.875 364.375 6.875ZM419.375-6.875 460.625-6.875 460.625 6.875 419.375 6.875ZM474.375-6.875 515.625-6.875 515.625 6.875 474.375 6.875ZM529.375-6.875 556.461-6.875 556.461 21.0389 542.711 21.0389 542.711 0 549.586 6.875 529.375 6.875ZM556.461 34.7889 556.461 76.0389 542.711 76.0389 542.711 34.7889ZM556.461 89.7889 556.461 122.175 542.711 122.175 542.711 89.7889ZM41.25 20.625 0 0 41.25-20.625ZM570.211 115.3 549.586 156.55 528.961 115.3Z" fill="#000000" fill-rule="nonzero" fill-opacity="1" transform="matrix(-1.83697e-16 -1 -1 1.83697e-16 2029.55 1775.59)"/><path d="M34.375-6.875 75.625-6.875 75.625 6.875 34.375 6.875ZM89.375-6.875 130.625-6.875 130.625 6.875 89.375 6.875ZM148.98 2.27001 148.98 33.6074 135.23 33.6074 135.23 2.27001ZM41.25 20.625 0 0 41.25-20.625ZM162.73 26.7324 142.105 67.9824 121.48 26.7324Z" fill="#000000" fill-rule="nonzero" fill-opacity="1" transform="matrix(-1.83697e-16 -1 -1 1.83697e-16 1939.98 1775.1)"/><path d="M34.375-6.875 75.625-6.875 75.625 6.875 34.375 6.875ZM89.375-6.875 130.625-6.875 130.625 6.875 89.375 6.875ZM144.375-6.875 185.625-6.875 185.625 6.875 144.375 6.875ZM199.375-6.875 240.625-6.875 240.625 6.875 199.375 6.875ZM254.375-6.875 295.625-6.875 295.625 6.875 254.375 6.875ZM309.375-6.875 352.72-6.875 352.72 4.77961 338.97 4.77961 338.97 0 345.845 6.875 309.375 6.875ZM352.72 18.5296 352.72 59.7796 338.97 59.7796 338.97 18.5296ZM352.72 73.5296 352.72 83.1803 338.97 83.1803 338.97 73.5296ZM41.25 20.625 0 0 41.25-20.625ZM366.47 76.3053 345.845 117.555 325.22 76.3053Z" fill="#000000" fill-rule="nonzero" fill-opacity="1" transform="matrix(-1.83697e-16 -1 -1 1.83697e-16 1987.56 1775.85)"/><path d="M0 0 4.31904 0 4.31904 159.182 169.71 159.182" stroke="#000000" stroke-width="12.6042" stroke-linecap="butt" stroke-linejoin="miter" stroke-miterlimit="8" stroke-opacity="1" fill="none" fill-rule="evenodd" transform="matrix(-1 1.22465e-16 1.22465e-16 1 2045.21 865.5)"/><rect x="2120.5" y="1773.5" width="1389" height="131" stroke="#000000" stroke-width="6.875" stroke-linecap="butt" stroke-linejoin="miter" stroke-miterlimit="8" stroke-opacity="1" fill="#A0E887" fill-opacity="1"/><text fill="#000000" fill-opacity="1" font-family="Aptos SemiBold,Aptos SemiBold_MSFontService,sans-serif" font-style="normal" font-variant="normal" font-weight="600" font-stretch="normal" font-size="92" text-anchor="start" direction="ltr" writing-mode="lr-tb" unicode-bidi="normal" text-decoration="none" transform="matrix(1 0 0 1 2535.21 1869)">Regional</text><text fill="#000000" fill-opacity="1" font-family="Aptos SemiBold,Aptos SemiBold_MSFontService,sans-serif" font-style="normal" font-variant="normal" font-weight="600" font-stretch="normal" font-size="92" text-anchor="start" direction="ltr" writing-mode="lr-tb" unicode-bidi="normal" text-decoration="none" transform="matrix(1 0 0 1 2908.17 1869)">OCS</text><rect x="2120.5" y="938.5" width="542" height="787" stroke="#172C51" stroke-width="6.875" stroke-linecap="butt" stroke-linejoin="miter" stroke-miterlimit="8" stroke-opacity="1" fill="#D9D9D9" fill-opacity="1"/><path d="M2184.83 1694.5C2169.19 1694.5 2156.5 1681.81 2156.5 1666.17L2156.5 992.834C2156.5 977.186 2169.19 964.5 2184.83 964.5L2298.17 964.5C2313.81 964.5 2326.5 977.186 2326.5 992.834L2326.5 1666.17C2326.5 1681.81 2313.81 1694.5 2298.17 1694.5Z" stroke="#000000" stroke-width="6.875" stroke-linecap="butt" stroke-linejoin="miter" stroke-miterlimit="8" stroke-opacity="1" fill="#FDC3BC" fill-rule="evenodd" fill-opacity="1"/><text fill="#000000" fill-opacity="1" font-family="Aptos,Aptos_MSFontService,sans-serif" font-style="normal" font-variant="normal" font-weight="700" font-stretch="normal" font-size="64" text-anchor="start" direction="ltr" writing-mode="lr-tb" unicode-bidi="normal" text-decoration="none" transform="matrix(-1.83697e-16 -1 1 -1.83697e-16 2222.68 1643)">Lo</text><text fill="#000000" fill-opacity="1" font-family="Aptos,Aptos_MSFontService,sans-serif" font-style="normal" font-variant="normal" font-weight="700" font-stretch="normal" font-size="64" text-anchor="start" direction="ltr" writing-mode="lr-tb" unicode-bidi="normal" text-decoration="none" transform="matrix(-1.83697e-16 -1 1 -1.83697e-16 2222.68 1573)">cal</text><text fill="#000000" fill-opacity="1" font-family="Aptos,Aptos_MSFontService,sans-serif" font-style="normal" font-variant="normal" font-weight="700" font-stretch="normal" font-size="64" text-anchor="start" direction="ltr" writing-mode="lr-tb" unicode-bidi="normal" text-decoration="none" transform="matrix(-1.83697e-16 -1 1 -1.83697e-16 2222.68 1471)">Scale</text><text fill="#000000" fill-opacity="1" font-family="Aptos,Aptos_MSFontService,sans-serif" font-style="normal" font-variant="normal" font-weight="700" font-stretch="normal" font-size="64" text-anchor="start" direction="ltr" writing-mode="lr-tb" unicode-bidi="normal" text-decoration="none" transform="matrix(-1.83697e-16 -1 1 -1.83697e-16 2222.68 1308)">-</text><text fill="#000000" fill-opacity="1" font-family="Aptos,Aptos_MSFontService,sans-serif" font-style="normal" font-variant="normal" font-weight="700" font-stretch="normal" font-size="64" text-anchor="start" direction="ltr" writing-mode="lr-tb" unicode-bidi="normal" text-decoration="none" transform="matrix(-1.83697e-16 -1 1 -1.83697e-16 2222.68 1286)">up</text><text fill="#000000" fill-opacity="1" font-family="Aptos,Aptos_MSFontService,sans-serif" font-style="normal" font-variant="normal" font-weight="700" font-stretch="normal" font-size="64" text-anchor="start" direction="ltr" writing-mode="lr-tb" unicode-bidi="normal" text-decoration="none" transform="matrix(-1.83697e-16 -1 1 -1.83697e-16 2222.68 1198)">Fabric</text><text fill="#000000" fill-opacity="1" font-family="Aptos,Aptos_MSFontService,sans-serif" font-style="normal" font-variant="normal" font-weight="700" font-stretch="normal" font-size="64" text-anchor="start" direction="ltr" writing-mode="lr-tb" unicode-bidi="normal" text-decoration="none" transform="matrix(-1.83697e-16 -1 1 -1.83697e-16 2299.68 1497)">(</text><text fill="#000000" fill-opacity="1" font-family="Aptos,Aptos_MSFontService,sans-serif" font-style="normal" font-variant="normal" font-weight="700" font-stretch="normal" font-size="64" text-anchor="start" direction="ltr" writing-mode="lr-tb" unicode-bidi="normal" text-decoration="none" transform="matrix(-1.83697e-16 -1 1 -1.83697e-16 2299.68 1478)">NV</text><text fill="#000000" fill-opacity="1" font-family="Aptos,Aptos_MSFontService,sans-serif" font-style="normal" font-variant="normal" font-weight="700" font-stretch="normal" font-size="64" text-anchor="start" direction="ltr" writing-mode="lr-tb" unicode-bidi="normal" text-decoration="none" transform="matrix(-1.83697e-16 -1 1 -1.83697e-16 2299.68 1379)">Switch)</text><path d="M2325 1634 2380.9 1634" stroke="#000000" stroke-width="27.5" stroke-linecap="butt" stroke-linejoin="miter" stroke-miterlimit="8" stroke-opacity="1" fill="none" fill-rule="evenodd"/><path d="M2325 1431 2380.9 1431" stroke="#000000" stroke-width="27.5" stroke-linecap="butt" stroke-linejoin="miter" stroke-miterlimit="8" stroke-opacity="1" fill="none" fill-rule="evenodd"/><path d="M2325 1227 2380.9 1227" stroke="#000000" stroke-width="27.5" stroke-linecap="butt" stroke-linejoin="miter" stroke-miterlimit="8" stroke-opacity="1" fill="none" fill-rule="evenodd"/><path d="M2325 1024 2380.9 1024" stroke="#000000" stroke-width="27.5" stroke-linecap="butt" stroke-linejoin="miter" stroke-miterlimit="8" stroke-opacity="1" fill="none" fill-rule="evenodd"/><rect x="0" y="0" width="120" height="208" stroke="#262626" stroke-width="4.58333" stroke-linecap="butt" stroke-linejoin="miter" stroke-miterlimit="8" stroke-opacity="1" fill="#F4B183" fill-opacity="1" transform="matrix(1.83697e-16 1 1 -1.83697e-16 2384.5 964.5)"/><text fill="#000000" fill-opacity="1" font-family="Aptos,Aptos_MSFontService,sans-serif" font-style="normal" font-variant="normal" font-weight="700" font-stretch="normal" font-size="73" text-anchor="start" direction="ltr" writing-mode="lr-tb" unicode-bidi="normal" text-decoration="none" transform="matrix(1 -2.44929e-16 2.44929e-16 1 2422 1048)">xPU</text><rect x="0" y="0" width="120" height="209" stroke="#262626" stroke-width="4.58333" stroke-linecap="butt" stroke-linejoin="miter" stroke-miterlimit="8" stroke-opacity="1" fill="#F4B183" fill-opacity="1" transform="matrix(1.83697e-16 1 1 -1.83697e-16 2381.5 1166.5)"/><text fill="#000000" fill-opacity="1" font-family="Aptos,Aptos_MSFontService,sans-serif" font-style="normal" font-variant="normal" font-weight="700" font-stretch="normal" font-size="73" text-anchor="start" direction="ltr" writing-mode="lr-tb" unicode-bidi="normal" text-decoration="none" transform="matrix(1 -2.44929e-16 2.44929e-16 1 2419.35 1250)">xPU</text><rect x="0" y="0" width="120" height="209" stroke="#262626" stroke-width="4.58333" stroke-linecap="butt" stroke-linejoin="miter" stroke-miterlimit="8" stroke-opacity="1" fill="#F4B183" fill-opacity="1" transform="matrix(1.83697e-16 1 1 -1.83697e-16 2378.5 1370.5)"/><text fill="#000000" fill-opacity="1" font-family="Aptos,Aptos_MSFontService,sans-serif" font-style="normal" font-variant="normal" font-weight="700" font-stretch="normal" font-size="73" text-anchor="start" direction="ltr" writing-mode="lr-tb" unicode-bidi="normal" text-decoration="none" transform="matrix(1 -2.44929e-16 2.44929e-16 1 2416.3 1454)">xPU</text><rect x="0" y="0" width="121" height="208" stroke="#262626" stroke-width="4.58333" stroke-linecap="butt" stroke-linejoin="miter" stroke-miterlimit="8" stroke-opacity="1" fill="#F4B183" fill-opacity="1" transform="matrix(1.83697e-16 1 1 -1.83697e-16 2380.5 1573.5)"/><text fill="#000000" fill-opacity="1" font-family="Aptos,Aptos_MSFontService,sans-serif" font-style="normal" font-variant="normal" font-weight="700" font-stretch="normal" font-size="73" text-anchor="start" direction="ltr" writing-mode="lr-tb" unicode-bidi="normal" text-decoration="none" transform="matrix(1 -2.44929e-16 2.44929e-16 1 2418.14 1657)">xPU</text><path d="M34.375-6.875 75.625-6.875 75.625 6.875 34.375 6.875ZM89.375-6.875 130.625-6.875 130.625 6.875 89.375 6.875ZM144.375-6.875 185.625-6.875 185.625 6.875 144.375 6.875ZM199.375-6.875 240.625-6.875 240.625 6.875 199.375 6.875ZM254.375-6.875 295.625-6.875 295.625 6.875 254.375 6.875ZM309.375-6.875 350.625-6.875 350.625 6.875 309.375 6.875ZM364.375-6.875 405.625-6.875 405.625 6.875 364.375 6.875ZM419.375-6.875 460.625-6.875 460.625 6.875 419.375 6.875ZM474.375-6.875 515.625-6.875 515.625 6.875 474.375 6.875ZM529.375-6.875 556.461-6.875 556.461 21.0389 542.711 21.0389 542.711 0 549.586 6.875 529.375 6.875ZM556.461 34.7889 556.461 76.0389 542.711 76.0389 542.711 34.7889ZM556.461 89.7889 556.461 122.175 542.711 122.175 542.711 89.7889ZM41.25 20.625 0 0 41.25-20.625ZM570.211 115.3 549.586 156.55 528.961 115.3Z" fill="#000000" fill-rule="nonzero" fill-opacity="1" transform="matrix(-1.83697e-16 -1 -1 1.83697e-16 2746.55 1775.59)"/><path d="M34.375-6.875 75.625-6.875 75.625 6.875 34.375 6.875ZM89.375-6.875 130.625-6.875 130.625 6.875 89.375 6.875ZM148.98 2.27001 148.98 33.6074 135.23 33.6074 135.23 2.27001ZM41.25 20.625 0 0 41.25-20.625ZM162.73 26.7324 142.105 67.9824 121.48 26.7324Z" fill="#000000" fill-rule="nonzero" fill-opacity="1" transform="matrix(-1.83697e-16 -1 -1 1.83697e-16 2655.98 1775.1)"/><path d="M34.375-6.875 75.625-6.875 75.625 6.875 34.375 6.875ZM89.375-6.875 130.625-6.875 130.625 6.875 89.375 6.875ZM144.375-6.875 185.625-6.875 185.625 6.875 144.375 6.875ZM199.375-6.875 240.625-6.875 240.625 6.875 199.375 6.875ZM254.375-6.875 295.625-6.875 295.625 6.875 254.375 6.875ZM309.375-6.875 352.72-6.875 352.72 4.77961 338.97 4.77961 338.97 0 345.845 6.875 309.375 6.875ZM352.72 18.5296 352.72 59.7796 338.97 59.7796 338.97 18.5296ZM352.72 73.5296 352.72 83.1803 338.97 83.1803 338.97 73.5296ZM41.25 20.625 0 0 41.25-20.625ZM366.47 76.3053 345.845 117.555 325.22 76.3053Z" fill="#000000" fill-rule="nonzero" fill-opacity="1" transform="matrix(-1.83697e-16 -1 -1 1.83697e-16 2704.56 1775.85)"/><path d="M0 0 4.31904 0 4.31904 159.182 169.71 159.182" stroke="#000000" stroke-width="12.6042" stroke-linecap="butt" stroke-linejoin="miter" stroke-miterlimit="8" stroke-opacity="1" fill="none" fill-rule="evenodd" transform="matrix(-1 1.22465e-16 1.22465e-16 1 2762.21 865.5)"/><rect x="2836.5" y="938.5" width="543" height="787" stroke="#172C51" stroke-width="6.875" stroke-linecap="butt" stroke-linejoin="miter" stroke-miterlimit="8" stroke-opacity="1" fill="#D9D9D9" fill-opacity="1"/><path d="M2901.67 1694.5C2886.11 1694.5 2873.5 1681.89 2873.5 1666.33L2873.5 992.667C2873.5 977.111 2886.11 964.5 2901.67 964.5L3014.33 964.5C3029.89 964.5 3042.5 977.111 3042.5 992.667L3042.5 1666.33C3042.5 1681.89 3029.89 1694.5 3014.33 1694.5Z" stroke="#000000" stroke-width="6.875" stroke-linecap="butt" stroke-linejoin="miter" stroke-miterlimit="8" stroke-opacity="1" fill="#FDC3BC" fill-rule="evenodd" fill-opacity="1"/><text fill="#000000" fill-opacity="1" font-family="Aptos,Aptos_MSFontService,sans-serif" font-style="normal" font-variant="normal" font-weight="700" font-stretch="normal" font-size="64" text-anchor="start" direction="ltr" writing-mode="lr-tb" unicode-bidi="normal" text-decoration="none" transform="matrix(-1.83697e-16 -1 1 -1.83697e-16 2939.52 1643)">Lo</text><text fill="#000000" fill-opacity="1" font-family="Aptos,Aptos_MSFontService,sans-serif" font-style="normal" font-variant="normal" font-weight="700" font-stretch="normal" font-size="64" text-anchor="start" direction="ltr" writing-mode="lr-tb" unicode-bidi="normal" text-decoration="none" transform="matrix(-1.83697e-16 -1 1 -1.83697e-16 2939.52 1573)">cal</text><text fill="#000000" fill-opacity="1" font-family="Aptos,Aptos_MSFontService,sans-serif" font-style="normal" font-variant="normal" font-weight="700" font-stretch="normal" font-size="64" text-anchor="start" direction="ltr" writing-mode="lr-tb" unicode-bidi="normal" text-decoration="none" transform="matrix(-1.83697e-16 -1 1 -1.83697e-16 2939.52 1471)">Scale</text><text fill="#000000" fill-opacity="1" font-family="Aptos,Aptos_MSFontService,sans-serif" font-style="normal" font-variant="normal" font-weight="700" font-stretch="normal" font-size="64" text-anchor="start" direction="ltr" writing-mode="lr-tb" unicode-bidi="normal" text-decoration="none" transform="matrix(-1.83697e-16 -1 1 -1.83697e-16 2939.52 1308)">-</text><text fill="#000000" fill-opacity="1" font-family="Aptos,Aptos_MSFontService,sans-serif" font-style="normal" font-variant="normal" font-weight="700" font-stretch="normal" font-size="64" text-anchor="start" direction="ltr" writing-mode="lr-tb" unicode-bidi="normal" text-decoration="none" transform="matrix(-1.83697e-16 -1 1 -1.83697e-16 2939.52 1286)">up</text><text fill="#000000" fill-opacity="1" font-family="Aptos,Aptos_MSFontService,sans-serif" font-style="normal" font-variant="normal" font-weight="700" font-stretch="normal" font-size="64" text-anchor="start" direction="ltr" writing-mode="lr-tb" unicode-bidi="normal" text-decoration="none" transform="matrix(-1.83697e-16 -1 1 -1.83697e-16 2939.52 1198)">Fabric</text><text fill="#000000" fill-opacity="1" font-family="Aptos,Aptos_MSFontService,sans-serif" font-style="normal" font-variant="normal" font-weight="700" font-stretch="normal" font-size="64" text-anchor="start" direction="ltr" writing-mode="lr-tb" unicode-bidi="normal" text-decoration="none" transform="matrix(-1.83697e-16 -1 1 -1.83697e-16 3016.52 1497)">(</text><text fill="#000000" fill-opacity="1" font-family="Aptos,Aptos_MSFontService,sans-serif" font-style="normal" font-variant="normal" font-weight="700" font-stretch="normal" font-size="64" text-anchor="start" direction="ltr" writing-mode="lr-tb" unicode-bidi="normal" text-decoration="none" transform="matrix(-1.83697e-16 -1 1 -1.83697e-16 3016.52 1478)">NV</text><text fill="#000000" fill-opacity="1" font-family="Aptos,Aptos_MSFontService,sans-serif" font-style="normal" font-variant="normal" font-weight="700" font-stretch="normal" font-size="64" text-anchor="start" direction="ltr" writing-mode="lr-tb" unicode-bidi="normal" text-decoration="none" transform="matrix(-1.83697e-16 -1 1 -1.83697e-16 3016.52 1379)">Switch)</text><path d="M3042 1634 3097.9 1634" stroke="#000000" stroke-width="27.5" stroke-linecap="butt" stroke-linejoin="miter" stroke-miterlimit="8" stroke-opacity="1" fill="none" fill-rule="evenodd"/><path d="M3042 1431 3097.9 1431" stroke="#000000" stroke-width="27.5" stroke-linecap="butt" stroke-linejoin="miter" stroke-miterlimit="8" stroke-opacity="1" fill="none" fill-rule="evenodd"/><path d="M3042 1227 3097.9 1227" stroke="#000000" stroke-width="27.5" stroke-linecap="butt" stroke-linejoin="miter" stroke-miterlimit="8" stroke-opacity="1" fill="none" fill-rule="evenodd"/><path d="M3042 1024 3097.9 1024" stroke="#000000" stroke-width="27.5" stroke-linecap="butt" stroke-linejoin="miter" stroke-miterlimit="8" stroke-opacity="1" fill="none" fill-rule="evenodd"/><rect x="0" y="0" width="120" height="209" stroke="#262626" stroke-width="4.58333" stroke-linecap="butt" stroke-linejoin="miter" stroke-miterlimit="8" stroke-opacity="1" fill="#F4B183" fill-opacity="1" transform="matrix(1.83697e-16 1 1 -1.83697e-16 3100.5 964.5)"/><text fill="#000000" fill-opacity="1" font-family="Aptos,Aptos_MSFontService,sans-serif" font-style="normal" font-variant="normal" font-weight="700" font-stretch="normal" font-size="73" text-anchor="start" direction="ltr" writing-mode="lr-tb" unicode-bidi="normal" text-decoration="none" transform="matrix(1 -2.44929e-16 2.44929e-16 1 3138.84 1048)">xPU</text><rect x="0" y="0" width="120" height="208" stroke="#262626" stroke-width="4.58333" stroke-linecap="butt" stroke-linejoin="miter" stroke-miterlimit="8" stroke-opacity="1" fill="#F4B183" fill-opacity="1" transform="matrix(1.83697e-16 1 1 -1.83697e-16 3098.5 1166.5)"/><text fill="#000000" fill-opacity="1" font-family="Aptos,Aptos_MSFontService,sans-serif" font-style="normal" font-variant="normal" font-weight="700" font-stretch="normal" font-size="73" text-anchor="start" direction="ltr" writing-mode="lr-tb" unicode-bidi="normal" text-decoration="none" transform="matrix(1 -2.44929e-16 2.44929e-16 1 3136.19 1250)">xPU</text><rect x="0" y="0" width="120" height="208" stroke="#262626" stroke-width="4.58333" stroke-linecap="butt" stroke-linejoin="miter" stroke-miterlimit="8" stroke-opacity="1" fill="#F4B183" fill-opacity="1" transform="matrix(1.83697e-16 1 1 -1.83697e-16 3095.5 1370.5)"/><text fill="#000000" fill-opacity="1" font-family="Aptos,Aptos_MSFontService,sans-serif" font-style="normal" font-variant="normal" font-weight="700" font-stretch="normal" font-size="73" text-anchor="start" direction="ltr" writing-mode="lr-tb" unicode-bidi="normal" text-decoration="none" transform="matrix(1 -2.44929e-16 2.44929e-16 1 3133.13 1454)">xPU</text><rect x="0" y="0" width="121" height="208" stroke="#262626" stroke-width="4.58333" stroke-linecap="butt" stroke-linejoin="miter" stroke-miterlimit="8" stroke-opacity="1" fill="#F4B183" fill-opacity="1" transform="matrix(1.83697e-16 1 1 -1.83697e-16 3097.5 1573.5)"/><text fill="#000000" fill-opacity="1" font-family="Aptos,Aptos_MSFontService,sans-serif" font-style="normal" font-variant="normal" font-weight="700" font-stretch="normal" font-size="73" text-anchor="start" direction="ltr" writing-mode="lr-tb" unicode-bidi="normal" text-decoration="none" transform="matrix(1 -2.44929e-16 2.44929e-16 1 3134.98 1657)">xPU</text><path d="M34.375-6.875 75.625-6.875 75.625 6.875 34.375 6.875ZM89.375-6.875 130.625-6.875 130.625 6.875 89.375 6.875ZM144.375-6.875 185.625-6.875 185.625 6.875 144.375 6.875ZM199.375-6.875 240.625-6.875 240.625 6.875 199.375 6.875ZM254.375-6.875 295.625-6.875 295.625 6.875 254.375 6.875ZM309.375-6.875 350.625-6.875 350.625 6.875 309.375 6.875ZM364.375-6.875 405.625-6.875 405.625 6.875 364.375 6.875ZM419.375-6.875 460.625-6.875 460.625 6.875 419.375 6.875ZM474.375-6.875 515.625-6.875 515.625 6.875 474.375 6.875ZM529.375-6.875 556.461-6.875 556.461 21.0389 542.711 21.0389 542.711 0 549.586 6.875 529.375 6.875ZM556.461 34.7889 556.461 76.0389 542.711 76.0389 542.711 34.7889ZM556.461 89.7889 556.461 122.175 542.711 122.175 542.711 89.7889ZM41.25 20.625 0 0 41.25-20.625ZM570.211 115.3 549.586 156.55 528.961 115.3Z" fill="#000000" fill-rule="nonzero" fill-opacity="1" transform="matrix(-1.83697e-16 -1 -1 1.83697e-16 3462.55 1775.59)"/><path d="M34.375-6.875 75.625-6.875 75.625 6.875 34.375 6.875ZM89.375-6.875 130.625-6.875 130.625 6.875 89.375 6.875ZM148.98 2.27001 148.98 33.6074 135.23 33.6074 135.23 2.27001ZM41.25 20.625 0 0 41.25-20.625ZM162.73 26.7324 142.105 67.9824 121.48 26.7324Z" fill="#000000" fill-rule="nonzero" fill-opacity="1" transform="matrix(-1.83697e-16 -1 -1 1.83697e-16 3372.98 1775.1)"/><path d="M34.375-6.875 75.625-6.875 75.625 6.875 34.375 6.875ZM89.375-6.875 130.625-6.875 130.625 6.875 89.375 6.875ZM144.375-6.875 185.625-6.875 185.625 6.875 144.375 6.875ZM199.375-6.875 240.625-6.875 240.625 6.875 199.375 6.875ZM254.375-6.875 295.625-6.875 295.625 6.875 254.375 6.875ZM309.375-6.875 352.72-6.875 352.72 4.77961 338.97 4.77961 338.97 0 345.845 6.875 309.375 6.875ZM352.72 18.5296 352.72 59.7796 338.97 59.7796 338.97 18.5296ZM352.72 73.5296 352.72 83.1803 338.97 83.1803 338.97 73.5296ZM41.25 20.625 0 0 41.25-20.625ZM366.47 76.3053 345.845 117.555 325.22 76.3053Z" fill="#000000" fill-rule="nonzero" fill-opacity="1" transform="matrix(-1.83697e-16 -1 -1 1.83697e-16 3420.56 1775.85)"/><path d="M0 0 4.31904 0 4.31904 159.182 169.71 159.182" stroke="#000000" stroke-width="12.6042" stroke-linecap="butt" stroke-linejoin="miter" stroke-miterlimit="8" stroke-opacity="1" fill="none" fill-rule="evenodd" transform="matrix(-1 1.22465e-16 1.22465e-16 1 3479.21 865.5)"/><rect x="686.5" y="716.5" width="2823" height="159" stroke="#000000" stroke-width="6.875" stroke-linecap="butt" stroke-linejoin="miter" stroke-miterlimit="8" stroke-opacity="1" fill="#65C7FF" fill-opacity="1"/><text fill="#000000" fill-opacity="1" font-family="Aptos SemiBold,Aptos SemiBold_MSFontService,sans-serif" font-style="normal" font-variant="normal" font-weight="600" font-stretch="normal" font-size="92" text-anchor="start" direction="ltr" writing-mode="lr-tb" unicode-bidi="normal" text-decoration="none" transform="matrix(1 0 0 1 1503.99 826)">Global</text><text fill="#000000" fill-opacity="1" font-family="Aptos SemiBold,Aptos SemiBold_MSFontService,sans-serif" font-style="normal" font-variant="normal" font-weight="600" font-stretch="normal" font-size="92" text-anchor="start" direction="ltr" writing-mode="lr-tb" unicode-bidi="normal" text-decoration="none" transform="matrix(1 0 0 1 1792.74 826)">Scale</text><text fill="#000000" fill-opacity="1" font-family="Aptos SemiBold,Aptos SemiBold_MSFontService,sans-serif" font-style="normal" font-variant="normal" font-weight="600" font-stretch="normal" font-size="92" text-anchor="start" direction="ltr" writing-mode="lr-tb" unicode-bidi="normal" text-decoration="none" transform="matrix(1 0 0 1 2019.52 826)">-</text><text fill="#000000" fill-opacity="1" font-family="Aptos SemiBold,Aptos SemiBold_MSFontService,sans-serif" font-style="normal" font-variant="normal" font-weight="600" font-stretch="normal" font-size="92" text-anchor="start" direction="ltr" writing-mode="lr-tb" unicode-bidi="normal" text-decoration="none" transform="matrix(1 0 0 1 2050.46 826)">out</text><text fill="#000000" fill-opacity="1" font-family="Aptos SemiBold,Aptos SemiBold_MSFontService,sans-serif" font-style="normal" font-variant="normal" font-weight="600" font-stretch="normal" font-size="92" text-anchor="start" direction="ltr" writing-mode="lr-tb" unicode-bidi="normal" text-decoration="none" transform="matrix(1 0 0 1 2204 826)">Fabric</text><text fill="#000000" fill-opacity="1" font-family="Aptos SemiBold,Aptos SemiBold_MSFontService,sans-serif" font-style="normal" font-variant="normal" font-weight="600" font-stretch="normal" font-size="92" text-anchor="start" direction="ltr" writing-mode="lr-tb" unicode-bidi="normal" text-decoration="none" transform="matrix(1 0 0 1 2477.65 826)">(EPS)</text></g></g></svg>